<svg xmlns="http://www.w3.org/2000/svg" viewBox="0 0 100 100" fill="currentColor">
  <!-- Bow variant A: heraldic strung bow alone — no arrow. Bigger stave, bigger tip curls. -->
  <path d="
    M 55.0 5.0
    C 27.0 16.0, 11.0 32.0, 11.4 50.6
    C 11.8 69.2, 28.2 85.2, 56.0 95.4
    L 50.0 81.0
    C 33.4 72.6, 26.0 62.4, 25.8 50.2
    C 25.6 38.0, 32.8 27.4, 48.6 19.0
    Z" />
  <path d="M 55.0 5.0 C 63.0 1.6, 69.4 7.4, 65.4 14.0 C 66.0 8.6, 61.2 6.0, 55.0 5.0 Z" />
  <path d="M 56.0 95.4 C 64.2 98.6, 70.6 92.6, 66.4 86.2 C 67.0 91.4, 62.2 94.2, 56.0 95.4 Z" />
  <path d="M 8.6 41.6 L 29.0 40.0 L 29.6 44.8 L 9.2 46.4 Z" />
  <path d="M 8.8 55.2 L 29.2 56.6 L 28.8 61.4 L 8.4 60.0 Z" />
  <path d="M 59.6 9.6 L 63.0 9.4 L 64.0 90.6 L 60.6 90.8 Z" />
</svg>
