<svg xmlns="http://www.w3.org/2000/svg" viewBox="0 0 100 100" fill="currentColor">
  <!-- Burn variant A: solid wind-leant flame, two tongues, no punched core. -->
  <path d="
    M 60.0 6.4
    C 57.0 16.0, 59.0 24.0, 66.0 31.0
    C 72.0 37.0, 75.0 45.0, 74.4 54.0
    C 73.4 70.0, 62.0 82.0, 47.0 87.0
    C 52.0 80.0, 54.0 73.0, 52.0 66.0
    C 50.4 60.0, 46.0 56.0, 40.0 54.0
    C 43.0 60.0, 42.0 66.0, 37.0 70.0
    C 33.0 73.2, 31.4 78.0, 33.0 83.0
    C 24.0 76.0, 19.6 66.0, 20.4 55.0
    C 21.4 42.0, 30.0 34.0, 38.0 27.0
    C 44.0 21.8, 48.0 15.0, 46.6 7.0
    C 51.0 9.0, 56.0 8.0, 60.0 6.4
    Z" />
</svg>
