<svg xmlns="http://www.w3.org/2000/svg" viewBox="0 0 100 100" fill="currentColor">
  <!-- Divination crest v2: heavy-lidded ancient eye, iris half-covered, lash-rays. -->
  <path fill-rule="evenodd" d="
    M 4.0 48.6
    C 19.0 33.4, 41.0 27.2, 58.0 29.4
    C 74.0 31.5, 88.0 38.8, 96.2 48.2
    C 82.6 66.4, 56.6 72.6, 38.0 68.4
    C 23.6 65.2, 11.4 58.4, 4.0 48.6
    Z
    M 17.6 48.8
    C 29.4 39.6, 47.0 36.4, 59.6 38.6
    C 69.8 40.4, 78.2 44.0, 84.4 48.4
    C 72.4 60.8, 51.8 64.4, 39.4 61.2
    C 30.0 58.8, 22.8 54.4, 17.6 48.8
    Z" />
  <path fill-rule="evenodd" d="
    M 51.0 33.0
    C 60.4 33.4, 67.2 40.4, 66.8 49.0
    C 66.4 57.6, 58.8 64.0, 49.8 63.6
    C 40.8 63.2, 34.0 56.2, 34.4 47.6
    C 34.8 39.2, 41.8 32.6, 51.0 33.0
    Z
    M 44.6 40.0
    C 41.8 40.2, 40.0 42.4, 40.2 45.0
    C 40.4 47.6, 42.8 49.4, 45.4 49.2
    C 48.0 49.0, 49.8 46.8, 49.6 44.2
    C 49.4 41.6, 47.4 39.8, 44.6 40.0
    Z" />
  <path d="M 27.0 70.0 L 22.6 80.4 L 27.8 81.6 L 31.6 71.4 Z" />
  <path d="M 47.0 73.0 L 45.6 84.0 L 51.0 84.2 L 52.0 73.4 Z" />
  <path d="M 66.4 70.6 L 70.6 80.6 L 65.6 82.0 L 62.0 71.6 Z" />
  <path d="M 30.4 27.0 L 26.8 18.0 L 31.8 16.6 L 35.0 26.0 Z" />
  <path d="M 60.0 25.6 L 62.8 16.2 L 67.6 17.8 L 64.6 27.0 Z" />
</svg>
