<svg xmlns="http://www.w3.org/2000/svg" viewBox="0 0 100 100" fill="currentColor">
  <!-- HP marker: chunky woodcut heart with a punched highlight. -->
  <path fill-rule="evenodd" d="
    M 50.0 86.0
    C 30.0 70.0, 14.0 56.0, 13.4 38.0
    C 13.0 24.0, 24.0 15.4, 35.0 17.6
    C 42.0 19.0, 47.0 24.0, 50.0 30.0
    C 53.0 24.0, 58.0 19.0, 65.0 17.4
    C 76.0 15.0, 87.0 24.0, 86.6 38.0
    C 86.0 56.0, 70.0 70.0, 50.0 86.0
    Z
    M 32.4 26.4
    C 29.6 26.6, 27.8 28.8, 28.0 31.4
    C 28.2 34.0, 30.6 35.8, 33.2 35.6
    C 35.8 35.4, 37.6 33.2, 37.4 30.6
    C 37.2 28.0, 35.2 26.2, 32.4 26.4
    Z" />
</svg>
