<svg xmlns="http://www.w3.org/2000/svg" viewBox="0 0 100 100" fill="currentColor">
  <!-- S variant B: the same paddle hand with a warding ring punched into the palm. -->
  <path fill-rule="evenodd" d="
    M 30.6 88.0
    L 29.4 22.0
    C 29.3 15.6, 37.7 15.4, 37.8 21.6
    L 39.4 20.2
    L 41.2 15.4
    C 42.6 8.8, 50.2 9.0, 50.0 15.8
    L 51.0 19.0
    L 53.6 19.4
    C 54.6 13.4, 61.6 13.6, 61.8 19.8
    L 63.6 21.6
    L 65.0 27.4
    C 66.2 22.2, 72.2 22.8, 72.6 28.0
    L 74.4 56.0
    C 74.0 73.0, 66.0 84.4, 52.0 88.6
    C 44.0 88.5, 36.6 88.3, 30.6 88.0
    Z
    M 39.2 26.0 L 40.0 48.0 L 41.8 48.0 L 41.0 25.6 Z
    M 51.4 21.5 L 51.8 48.0 L 53.6 48.0 L 53.0 21.9 Z
    M 63.2 26.0 L 63.4 48.5 L 65.2 48.5 L 65.0 26.4 Z
    M 51.6 57.0 C 56.8 57.2, 60.8 61.2, 60.6 66.2 C 60.4 71.2, 56.0 75.0, 50.8 74.8 C 45.6 74.6, 41.6 70.6, 41.8 65.6 C 42.0 60.7, 46.4 56.8, 51.6 57.0 Z
    M 51.4 61.6 C 48.8 61.5, 46.6 63.4, 46.5 65.8 C 46.4 68.2, 48.5 70.2, 51.1 70.3 C 53.7 70.4, 55.9 68.4, 56.0 66.0 C 56.1 63.6, 54.0 61.7, 51.4 61.6 Z" />
  <path d="
    M 31.4 66.0
    C 20.4 62.0, 13.2 55.0, 15.6 48.4
    C 17.6 43.2, 24.8 43.6, 27.6 48.8
    C 29.4 52.2, 30.8 58.0, 31.4 66.0
    Z" />
</svg>
