<svg xmlns="http://www.w3.org/2000/svg" viewBox="0 0 100 100" fill="currentColor">
  <!-- Seal variant A: wax seal — irregular pressed blob, engraved rim line, a punched
       diamond still-point at center (the same lozenge as the ritual circle's center).
       One drip at the base. Evenodd nesting: blob / rim-gap / wax disc / diamond punch. -->
  <path fill-rule="evenodd" d="
    M 50.0 8.0 Q 50.0 8.0, 58.8 12.8 Q 67.5 17.7, 76.5 22.6 Q 85.5 27.5, 85.8 37.8
    Q 86.0 48.0, 84.9 57.8 Q 83.8 67.5, 75.4 72.5 Q 67.0 77.4, 58.5 83.7
    Q 50.0 90.0, 41.0 84.6 Q 32.0 79.2, 23.7 73.6 Q 15.4 68.0, 15.2 58.0
    Q 15.0 48.0, 14.7 37.8 Q 14.5 27.5, 23.5 22.6 Q 32.5 17.7, 41.2 12.8 Z
    M 50.0 18.5 A 29.5 29.5 0 1 0 50.1 18.5 Z
    M 50.0 24.5 A 23.5 23.5 0 1 0 50.1 24.5 Z
    M 50.0 34.0 L 61.5 48.0 L 50.0 62.0 L 38.5 48.0 Z" />
  <!-- drip -->
  <path d="M 46.5 86.0 Q 50.0 97.0, 54.0 86.5 Q 50.5 84.5, 46.5 86.0 Z" />
</svg>
