<svg xmlns="http://www.w3.org/2000/svg" viewBox="0 0 100 100" fill="#ffffff">
  <!-- Gambit variant B: a pair of thrown dice, punched diamond pips. -->
  <g transform="rotate(14 66 38)">
    <path fill-rule="evenodd" d="
      M 50.0 22.0 L 82.0 22.4 L 81.6 54.4 L 49.6 54.0 Z
      M 58.0 27.5 L 61.5 31.0 L 58.0 34.5 L 54.5 31.0 Z
      M 66.0 34.5 L 69.5 38.0 L 66.0 41.5 L 62.5 38.0 Z
      M 74.0 41.5 L 77.5 45.0 L 74.0 48.5 L 70.5 45.0 Z" />
  </g>
  <g transform="rotate(-8 38 62)">
    <path fill-rule="evenodd" d="
      M 20.0 44.0 L 56.0 44.4 L 55.6 80.4 L 19.6 80.0 Z
      M 28.4 49.0 L 32.2 52.8 L 28.4 56.6 L 24.6 52.8 Z
      M 47.4 49.2 L 51.2 53.0 L 47.4 56.8 L 43.6 53.0 Z
      M 37.9 58.4 L 41.7 62.2 L 37.9 66.0 L 34.1 62.2 Z
      M 28.2 67.6 L 32.0 71.4 L 28.2 75.2 L 24.4 71.4 Z
      M 47.2 67.8 L 51.0 71.6 L 47.2 75.4 L 43.4 71.6 Z" />
  </g>
</svg>
