<svg xmlns="http://www.w3.org/2000/svg" viewBox="0 0 100 100" fill="#ffffff">
  <!-- Item variant A: strapped satchel — flap, center strap, punched buckle, handle. -->
  <path d="M 38.0 24.0 C 38.0 12.0, 62.0 12.0, 62.0 24.4 L 56.6 24.3 C 56.6 16.6, 43.4 16.6, 43.4 24.0 Z" />
  <path fill-rule="evenodd" d="
    M 14.0 24.0 L 86.0 24.4 L 84.4 48.0
    L 82.4 78.0 C 82.0 84.0, 76.4 88.4, 70.4 88.4 L 30.0 88.0 C 24.0 88.0, 18.4 83.6, 18.0 77.6
    L 15.8 48.0 Z
    M 17.4 49.6 L 41.8 49.8 L 41.8 52.8 L 17.6 52.6 Z
    M 58.2 49.9 L 82.8 50.2 L 82.6 53.2 L 58.2 52.9 Z
    M 42.0 24.1 L 44.2 24.1 L 44.2 88.0 L 42.0 88.0 Z
    M 55.8 24.3 L 58.0 24.3 L 58.0 88.1 L 55.8 88.1 Z
    M 45.6 52.0 L 54.4 52.2 L 54.2 62.0 L 45.4 61.8 Z
    M 48.2 54.4 L 51.8 54.5 L 51.7 59.6 L 48.1 59.5 Z" />
</svg>
